<?xml version="1.0" encoding="utf-8"?>
<!-- Generator: Adobe Illustrator 22.1.0, SVG Export Plug-In . SVG Version: 6.00 Build 0)  -->
<svg version="1.1" id="Layer_1" xmlns="http://www.w3.org/2000/svg" xmlns:xlink="http://www.w3.org/1999/xlink" x="0px" y="0px"
	 viewBox="0 0 255.8 188.7" style="enable-background:new 0 0 255.8 188.7;" xml:space="preserve">
<style type="text/css">
	.st0{fill:#FF8B1C;}
</style>
<path class="st0" d="M3.2,86.7l124.1,29.5c0.4,0.1,0.8,0.1,1.2,0l124.1-29.5c2.7-0.6,4.4,2.9,2.2,4.6l-125.3,96.9
	c-0.9,0.7-2.2,0.7-3.2,0L1,91.3C-1.2,89.6,0.5,86.1,3.2,86.7z"/>
<path class="st0" d="M3.2,0.1l124.1,29.5c0.4,0.1,0.8,0.1,1.2,0L252.6,0.1c2.7-0.6,4.4,2.9,2.2,4.6l-125.3,96.9
	c-0.9,0.7-2.2,0.7-3.2,0L1,4.6C-1.2,2.9,0.5-0.6,3.2,0.1z"/>
</svg>
